<?xml version="1.0" encoding="utf-8"?>
<svg viewBox="-2217.711 103.787 5883 1741" xmlns="http://www.w3.org/2000/svg">
  <path stroke="none" d="M 8339,8211 C 8339,8534 8550,8841 8968,8841 9398,8841 9623,8484 9623,8113 9623,7810 9411,7519 8993,7519 8563,7519 8339,7853 8339,8211 Z M 8339,8211 L 8339,8211 Z M 8572,8167 C 8572,7893 8707,7618 8966,7618 9243,7618 9389,7888 9389,8156 9389,8446 9252,8740 8993,8740 8720,8740 8572,8456 8572,8167 Z M 8572,8167 L 8572,8167 Z M 9882,9094 C 9882,9206 9926,9233 9993,9233 10031,9233 10074,9223 10119,9215 10119,9215 10087,9119 10087,8911 10087,8884 10087,8855 10088,8825 10119,8830 10144,8834 10179,8834 10539,8834 10711,8603 10711,8294 10711,8064 10584,7880 10378,7880 10157,7880 10087,8024 10087,8024 L 10078,8021 C 10079,8013 10081,8003 10081,7990 10081,7934 10018,7889 9935,7889 9906,7889 9877,7897 9846,7906 9882,8003 9888,8207 9888,8377 9888,8737 9882,8917 9882,9094 Z M 9882,9094 L 9882,9094 Z M 10083,8690 L 10083,8464 C 10083,8379 10083,8294 10092,8216 10108,8078 10190,7997 10298,7997 10423,7997 10494,8169 10494,8335 10494,8540 10399,8748 10204,8748 10137,8748 10083,8737 10083,8690 Z M 10083,8690 L 10083,8690 Z M 10944,8489 C 10944,8692 11005,8841 11217,8841 11438,8841 11497,8632 11497,8632 L 11488,8625 C 11488,8625 11385,8710 11297,8710 11157,8710 11141,8558 11141,8379 11141,8241 11146,8028 11146,8028 11146,8028 11273,8031 11293,8031 11358,8031 11394,8015 11394,7939 11394,7930 11394,7900 11392,7889 11392,7889 11369,7907 11295,7907 L 11146,7907 11183,7710 11141,7696 C 11117,7756 10946,7907 10868,7907 L 10868,7984 C 10938,8006 10951,8013 10951,8167 10951,8236 10944,8371 10944,8489 Z M 10944,8489 L 10944,8489 Z M 11738,7736 C 11805,7736 11861,7680 11861,7614 11861,7548 11805,7492 11738,7492 11673,7492 11617,7548 11617,7614 11617,7680 11673,7736 11738,7736 Z M 11738,7736 L 11738,7736 Z M 11638,8684 C 11638,8793 11722,8832 11801,8832 11957,8832 12002,8719 12002,8719 L 11995,8713 C 11995,8713 11962,8739 11926,8739 11837,8739 11836,8630 11836,8549 11836,8415 11845,8198 11845,8006 11845,7934 11772,7889 11691,7889 11662,7889 11633,7897 11602,7906 11604,7906 11646,7963 11646,8375 11646,8476 11638,8581 11638,8684 Z M 11638,8684 L 11638,8684 Z M 12091,8986 C 12091,9087 12217,9230 12461,9230 12714,9230 12895,9103 12895,8931 12895,8617 12346,8731 12346,8596 12346,8583 12356,8556 12373,8532 12398,8536 12425,8536 12456,8536 12692,8536 12860,8391 12860,8194 12860,8093 12824,8015 12755,7963 12842,7943 12940,7891 12940,7801 12940,7730 12867,7732 12804,7725 12795,7832 12770,7915 12676,7918 12625,7900 12562,7889 12490,7889 12255,7889 12087,8037 12087,8232 12087,8384 12163,8482 12308,8520 12273,8551 12223,8610 12223,8684 12223,8949 12726,8843 12726,9000 12726,9103 12612,9150 12505,9150 12304,9150 12250,8991 12244,8904 12183,8904 12091,8902 12091,8986 Z M 12091,8986 L 12091,8986 Z M 12479,8455 C 12342,8455 12288,8333 12288,8194 12288,8073 12365,7972 12465,7972 12603,7972 12658,8093 12658,8232 12658,8353 12582,8455 12479,8455 Z M 12479,8455 L 12479,8455 Z M 13027,8382 C 13027,8617 13182,8841 13486,8841 13797,8841 13963,8581 13963,8312 13963,8093 13808,7880 13504,7880 13191,7880 13027,8124 13027,8382 Z M 13027,8382 L 13027,8382 Z M 13247,8352 C 13247,8158 13323,7965 13484,7965 13658,7965 13743,8154 13743,8344 13743,8551 13665,8757 13504,8757 13332,8757 13247,8556 13247,8352 Z" style="" transform="matrix(1, 0, 0, 1, -10556.711095, -7388.213001)"/>
  <path stroke="none" d="M 14082,7998 C 14013,7998 13959,7944 13959,7877 13959,7808 14013,7754 14082,7754 14149,7754 14203,7808 14203,7877 14203,7944 14149,7998 14082,7998 Z M 14082,7998 L 14082,7998 Z M 14082,7736 C 14003,7736 13941,7798 13941,7877 13941,7954 14003,8017 14082,8017 14159,8017 14222,7954 14222,7877 14222,7798 14159,7736 14082,7736 Z" style="" transform="matrix(1, 0, 0, 1, -10556.711095, -7388.213001)"/>
  <path stroke="none" d="M 14054,7828 L 14054,7873 14095,7873 C 14111,7873 14119,7862 14119,7850 14119,7839 14111,7828 14095,7828 L 14054,7828 Z M 14054,7828 L 14054,7828 Z M 14152,7944 L 14121,7944 14079,7897 14054,7897 14054,7944 14028,7944 14028,7804 C 14050,7804 14072,7804 14095,7804 14128,7804 14145,7826 14145,7850 14145,7869 14136,7889 14110,7895 L 14152,7942 14152,7944 Z" style="" transform="matrix(1, 0, 0, 1, -10556.711095, -7388.213001)"/>
</svg>